<?xml version="1.0" standalone="no"?>
<!DOCTYPE svg PUBLIC "-//W3C//DTD SVG 20010904//EN"
 "http://www.w3.org/TR/2001/REC-SVG-20010904/DTD/svg10.dtd">
<svg version="1.0" xmlns="http://www.w3.org/2000/svg"
 width="720.000000pt" height="720.000000pt" viewBox="0 0 720.000000 720.000000"
 preserveAspectRatio="xMidYMid meet">

<g transform="translate(0.000000,720.000000) scale(0.100000,-0.100000)"
fill="#000000" stroke="none">
<path d="M3915 6985 c-387 -44 -651 -111 -1136 -289 -478 -174 -852 -378
-1137 -619 -207 -175 -496 -511 -689 -802 -507 -762 -764 -1590 -740 -2385 14
-483 111 -882 317 -1305 241 -495 560 -807 999 -978 135 -53 452 -147 596
-177 55 -12 183 -41 285 -66 116 -28 278 -58 435 -79 238 -33 264 -35 540 -35
190 0 324 5 390 14 536 74 804 117 955 153 481 114 873 296 1169 541 96 80
376 359 419 417 20 28 59 79 87 115 130 166 293 470 339 637 14 50 30 103 36
118 28 74 72 323 99 565 59 520 75 746 76 1080 0 290 -3 342 -23 480 -68 453
-168 792 -332 1125 -130 266 -269 463 -475 674 -221 226 -463 404 -745 545
-262 131 -534 219 -805 262 -140 22 -506 27 -660 9z m526 -499 c360 -24 822
-215 1149 -476 105 -84 285 -268 363 -372 244 -326 412 -756 482 -1233 54
-366 55 -736 5 -1210 -68 -644 -119 -891 -234 -1135 -112 -240 -411 -573 -716
-799 -243 -181 -520 -297 -915 -386 -173 -39 -557 -102 -736 -121 -195 -20
-686 -15 -879 10 -585 77 -1120 214 -1355 348 -11 7 -40 23 -65 37 -156 87
-339 258 -445 416 -115 173 -226 420 -298 665 -23 76 -30 107 -52 225 -26 133
-36 223 -44 368 -46 837 264 1713 875 2476 124 154 287 327 395 417 191 159
464 315 782 448 193 80 595 218 735 252 94 23 358 67 457 77 46 5 398 0 496
-7z"/>
<path class="spin" d="M3495 6321 c-50 -31 -64 -53 -100 -167 l-34 -110 -73 -23 c-40 -13
-114 -43 -164 -68 l-90 -44 -96 50 c-84 45 -103 51 -156 51 -57 0 -62 -2 -111
-46 -28 -25 -91 -94 -141 -154 -110 -132 -111 -134 -36 -281 l53 -106 -43 -88
c-24 -48 -53 -121 -66 -162 l-23 -73 -107 -36 c-179 -59 -190 -76 -196 -284
-7 -239 15 -277 188 -335 58 -19 110 -42 116 -51 7 -8 15 -32 19 -52 4 -20 30
-87 59 -148 l53 -110 -53 -105 c-58 -113 -66 -158 -38 -212 23 -43 188 -213
243 -248 66 -43 101 -39 229 25 l107 54 75 -38 c41 -21 111 -50 155 -65 44
-16 85 -33 91 -39 6 -6 25 -57 44 -114 28 -89 38 -107 73 -137 52 -45 80 -49
260 -41 210 9 223 18 281 194 l36 107 73 23 c39 13 112 42 162 65 l89 43 106
-53 c113 -57 150 -63 207 -36 34 16 231 205 260 250 8 12 14 46 14 77 0 47 -7
70 -50 152 l-50 96 43 92 c24 50 54 124 67 163 l23 72 111 36 c112 35 146 57
174 112 7 14 11 88 11 201 l0 179 -30 41 c-17 23 -31 42 -33 42 -1 0 -54 18
-117 39 l-115 39 -30 89 c-17 48 -48 121 -68 161 l-37 72 51 101 c53 107 64
170 39 220 -17 33 -219 237 -252 255 -55 29 -121 18 -228 -36 l-98 -51 -74 38
c-40 20 -113 51 -161 68 l-88 30 -33 100 c-41 126 -48 139 -94 170 -36 24 -41
25 -217 25 -158 0 -184 -2 -210 -19z m364 -248 c50 -156 65 -174 186 -208 33
-10 112 -42 175 -72 149 -71 164 -71 299 -3 l103 52 86 -86 86 -86 -53 -105
c-37 -73 -54 -117 -53 -143 0 -24 20 -79 55 -152 30 -63 64 -146 75 -185 34
-114 52 -129 215 -180 l88 -28 -3 -125 -3 -125 -107 -34 c-134 -43 -158 -65
-193 -177 -13 -45 -47 -128 -75 -186 -68 -138 -68 -157 1 -290 l52 -102 -86
-86 -87 -87 -105 53 c-134 66 -153 67 -276 4 -52 -26 -134 -60 -184 -76 -125
-40 -153 -69 -194 -203 l-31 -102 -121 -3 c-73 -2 -124 1 -128 7 -4 6 -21 56
-39 112 -40 124 -66 152 -174 183 -40 12 -124 46 -186 76 -69 33 -126 54 -147
54 -22 0 -74 -19 -140 -52 l-105 -53 -88 88 -87 87 53 103 c67 132 67 151 2
281 -27 55 -61 136 -75 181 -38 126 -62 148 -215 195 -41 13 -79 27 -84 31 -6
6 -10 143 -6 241 0 4 44 21 98 37 155 49 169 62 212 206 12 39 44 114 71 168
64 129 64 147 -3 282 l-53 105 86 86 86 86 104 -53 c133 -67 154 -67 277 -5
51 26 136 61 188 77 125 41 142 59 189 199 l37 110 123 0 123 0 31 -97z"/>
<path d="M3401 5729 c-94 -29 -181 -122 -204 -220 -6 -22 -13 -27 -50 -31
-105 -12 -212 -90 -265 -193 -19 -38 -26 -70 -30 -135 -4 -79 -7 -87 -38 -122
-18 -21 -46 -61 -61 -90 -26 -50 -28 -60 -28 -183 0 -122 2 -134 28 -186 15
-31 43 -71 62 -90 33 -32 34 -37 35 -106 0 -103 29 -173 99 -244 54 -54 141
-99 191 -99 36 0 49 -12 65 -61 20 -59 92 -142 149 -171 49 -25 163 -35 221
-19 36 10 65 25 116 63 14 9 22 7 48 -14 53 -45 111 -61 200 -56 61 4 88 10
124 31 58 34 112 97 133 156 24 63 28 68 77 73 97 12 202 90 253 189 22 43 28
72 32 139 4 80 6 87 37 120 131 139 126 433 -9 559 -23 22 -26 32 -26 92 0
101 -29 170 -104 245 -63 63 -144 104 -205 104 -25 0 -31 6 -49 58 -27 73 -75
130 -142 166 -97 53 -231 45 -315 -19 -41 -32 -44 -33 -59 -16 -9 10 -37 28
-63 41 -53 26 -166 36 -222 19z m143 -173 c18 -7 43 -29 54 -49 22 -34 22 -35
22 -753 0 -695 -1 -720 -20 -751 -10 -18 -31 -40 -46 -50 -33 -21 -97 -20
-130 2 -34 22 -64 74 -64 111 0 42 38 95 82 116 84 40 92 125 17 163 -24 13
-37 14 -64 5 -53 -18 -120 -67 -149 -110 -23 -35 -31 -40 -64 -40 -51 0 -112
37 -139 85 -25 45 -28 84 -11 148 17 64 5 93 -50 127 -65 40 -94 100 -93 192
0 37 8 84 16 105 18 42 62 93 81 93 7 0 22 12 34 27 16 21 20 36 16 63 -18
111 -18 121 -1 166 21 54 75 94 137 101 42 4 44 3 78 -43 39 -54 111 -102 164
-111 30 -5 40 -1 66 25 49 50 38 107 -28 141 -56 29 -84 64 -89 113 -10 98 86
164 181 124z m432 -2 c46 -22 78 -83 69 -132 -7 -38 -62 -102 -88 -102 -25 0
-57 -49 -57 -86 0 -39 26 -70 67 -80 43 -11 144 46 189 107 29 39 41 49 65 49
115 0 194 -121 155 -236 -20 -59 -9 -86 53 -128 65 -43 95 -114 89 -211 -5
-86 -36 -142 -94 -177 -19 -11 -42 -34 -50 -50 -14 -27 -14 -34 0 -69 21 -52
20 -95 -3 -146 -23 -49 -90 -93 -142 -93 -28 0 -41 8 -77 50 -52 60 -120 102
-168 103 -47 1 -84 -38 -84 -88 0 -35 13 -50 90 -98 73 -47 76 -149 5 -203
-63 -47 -143 -30 -185 39 -19 31 -20 56 -20 750 0 792 -3 757 63 797 39 24 78
25 123 4z"/>
<path d="M3239 5002 c-45 -29 -89 -84 -109 -137 -18 -46 -15 -183 3 -228 24
-56 54 -95 100 -128 51 -37 95 -38 131 -3 41 42 35 79 -20 129 -80 74 -80 157
1 231 56 52 60 90 16 135 -37 36 -65 37 -122 1z"/>
<path d="M4051 5004 c-49 -41 -44 -82 19 -143 47 -46 50 -51 50 -100 0 -50
-21 -111 -39 -111 -5 0 -20 -12 -35 -26 -52 -53 -18 -144 54 -144 65 0 149 80
177 169 16 51 18 147 3 202 -23 83 -117 179 -178 179 -11 0 -34 -12 -51 -26z"/>
<path d="M2735 3154 c-32 -8 -106 -37 -163 -64 -135 -65 -223 -149 -299 -290
-103 -191 -146 -365 -146 -595 -1 -439 141 -744 403 -869 60 -29 73 -31 170
-31 115 0 170 17 287 86 79 48 211 180 271 271 142 220 222 569 194 846 -24
233 -82 374 -201 492 -145 144 -330 199 -516 154z m280 -234 c138 -67 218
-229 232 -470 17 -307 -90 -626 -270 -801 -140 -136 -264 -171 -389 -106 -106
55 -169 154 -218 346 -29 112 -38 199 -35 351 2 117 7 149 34 244 66 226 158
353 306 422 88 40 101 43 205 40 67 -1 96 -7 135 -26z"/>
<path d="M4331 3149 c-75 -15 -139 -39 -224 -86 -244 -134 -370 -303 -437
-585 -61 -255 -21 -686 81 -890 47 -95 113 -182 167 -222 202 -148 450 -152
647 -11 100 71 183 178 264 343 119 239 171 434 171 642 0 183 -33 318 -118
484 -34 67 -65 109 -126 171 -90 92 -153 129 -255 151 -73 15 -105 16 -170 3z
m176 -224 c109 -46 202 -175 256 -359 29 -96 31 -333 4 -447 -48 -205 -183
-468 -289 -566 -79 -72 -120 -88 -223 -88 -78 0 -97 4 -147 28 -110 54 -180
164 -225 357 -25 106 -27 131 -27 325 0 185 3 220 22 290 40 146 104 249 209
336 48 39 182 114 232 129 45 14 150 11 188 -5z"/>
</g>
</svg>